<?xml version="1.0" encoding="utf-8"?>
<!-- Generator: Adobe Illustrator 23.0.6, SVG Export Plug-In . SVG Version: 6.00 Build 0)  -->
<svg version="1.1" id="MLIR" xmlns="http://www.w3.org/2000/svg" xmlns:xlink="http://www.w3.org/1999/xlink" x="0px" y="0px"
	 viewBox="0 0 360 360" style="enable-background:new 0 0 360 360;" xml:space="preserve">
<style type="text/css">
	.st0{fill:#FFFFFF;}
	.st1{fill:#1B466C;}
	.st2{fill:#3775E0;}
	.st3{fill:#5EA8DB;}
</style>
<g id="Black">
	<path d="M180,13.72L36,96.86v166.28l144,83.14l144-83.14V96.86L180,13.72z M180,60.66l69.23,39.97l-36.39,21.02L180,102.69
		l-32.84,18.96l-36.39-21.02L180,60.66z M180,299.34l-69.23-39.97l36.39-21.02L180,257.31l32.84-18.96l36.39,21.02L180,299.34z
		 M283.35,239.67l-36.4-21.03v-37.87L180,219.45l-66.95-38.68v37.87l-36.4,21.03V120.33L180,180.04l103.35-59.71V239.67z"/>
</g>
</svg>
