<?xml version="1.0" encoding="utf-8"?>
<!-- Generator: Adobe Illustrator 23.0.6, SVG Export Plug-In . SVG Version: 6.00 Build 0)  -->
<svg version="1.1" id="MLIR" xmlns="http://www.w3.org/2000/svg" xmlns:xlink="http://www.w3.org/1999/xlink" x="0px" y="0px"
	 viewBox="0 0 360 360" style="enable-background:new 0 0 360 360;" xml:space="preserve">
<style type="text/css">
	.st0{fill:#FFFFFF;}
	.st1{fill:#1B466C;}
	.st2{fill:#3775E0;}
	.st3{fill:#5EA8DB;}
</style>
<g id="Full_Color">
	<g>
		<g>
			<path class="st1" d="M258.52,169.21L180,214.54l-78.52-45.33V78.54L180,33.21l78.52,45.33V169.21z"/>
			<polygon class="st2" points="180,58.8 142.25,80.6 162.09,92.06 180,81.72 197.91,92.06 217.75,80.6 			"/>
			<polygon class="st3" points="180,188.95 217.75,167.15 197.91,155.69 180,166.03 162.09,155.69 142.25,167.15 			"/>
			<polygon class="st0" points="180,123.89 123.64,91.34 123.64,156.41 143.49,144.94 143.49,124.29 180,145.38 216.51,124.29 
				216.51,144.94 236.36,156.41 236.36,91.34 			"/>
		</g>
		<path class="st1" d="M78.3,298.56L54.9,252.39H36v75.16h15.25v-50.78l21.48,43.16h10.95l21.36-43.16v50.78h15.25v-75.16h-18.78
			L78.3,298.56z M164.04,252.39h-16.97v75.16h49.17v-14.82h-32.2V252.39z M214.88,327.55h16.97v-75.16h-16.97V327.55z M308,302.74
			c4.58-2.14,8.06-5.28,10.47-9.39c2.39-4.12,3.59-9.07,3.59-14.87c0-8.3-2.68-14.72-8.05-19.27c-5.37-4.54-12.96-6.82-22.76-6.82
			h-32.64v75.16h16.97v-21.48h17.28l11.92,21.48H324L308,302.74z M302.15,288.63c-2.54,2.18-6.18,3.27-10.9,3.27h-15.67v-25.44
			h15.67c4.72,0,8.35,1.06,10.9,3.17c2.54,2.11,3.81,5.24,3.81,9.39C305.96,283.24,304.69,286.45,302.15,288.63z"/>
	</g>
</g>
</svg>
