<?xml version="1.0" encoding="utf-8"?>
<!-- Generator: Adobe Illustrator 23.0.6, SVG Export Plug-In . SVG Version: 6.00 Build 0)  -->
<svg version="1.1" id="MLIR" xmlns="http://www.w3.org/2000/svg" xmlns:xlink="http://www.w3.org/1999/xlink" x="0px" y="0px"
	 viewBox="0 0 360 360" style="enable-background:new 0 0 360 360;" xml:space="preserve">
<style type="text/css">
	.st0{fill:#FFFFFF;}
	.st1{fill:#1B466C;}
	.st2{fill:#3775E0;}
	.st3{fill:#5EA8DB;}
</style>
<g id="Black">
	<path d="M101.48,78.16v90.67L180,214.16l78.52-45.33V78.16L180,32.83L101.48,78.16z M180,188.57l-37.75-21.8l19.84-11.46
		L180,165.65l17.91-10.34l19.84,11.46L180,188.57z M236.36,156.03l-19.85-11.47v-20.65L180,145.01l-36.51-21.09v20.65l-19.85,11.47
		V90.96L180,123.52l56.36-32.56V156.03z M217.75,80.22l-19.84,11.46L180,81.34l-17.91,10.34l-19.84-11.46L180,58.42L217.75,80.22z
		 M164.04,252.01h-16.97v75.16h49.17v-14.82h-32.2V252.01z M78.3,298.18L54.9,252.01H36v75.16h15.25v-50.78l21.48,43.16h10.95
		l21.36-43.16v50.78h15.25v-75.16h-18.78L78.3,298.18z M308,302.37c4.58-2.14,8.06-5.28,10.47-9.39c2.39-4.12,3.59-9.07,3.59-14.87
		c0-8.3-2.68-14.72-8.05-19.27c-5.37-4.54-12.96-6.82-22.76-6.82h-32.64v75.16h16.97v-21.48h17.28l11.92,21.48H324L308,302.37z
		 M302.15,288.26c-2.54,2.18-6.18,3.27-10.9,3.27h-15.67v-25.44h15.67c4.72,0,8.35,1.06,10.9,3.17c2.54,2.11,3.81,5.24,3.81,9.39
		C305.96,282.86,304.69,286.07,302.15,288.26z M214.88,327.17h16.97v-75.16h-16.97V327.17z"/>
</g>
</svg>
