<?xml version="1.0" encoding="utf-8"?>
<!-- Generator: Adobe Illustrator 23.0.6, SVG Export Plug-In . SVG Version: 6.00 Build 0)  -->
<svg version="1.1" id="MLIR" xmlns="http://www.w3.org/2000/svg" xmlns:xlink="http://www.w3.org/1999/xlink" x="0px" y="0px"
	 viewBox="0 0 360 143.94" style="enable-background:new 0 0 360 143.94;" xml:space="preserve">
<style type="text/css">
	.st0{fill:#FFFFFF;}
	.st1{fill:#1B466C;}
	.st2{fill:#3775E0;}
	.st3{fill:#5EA8DB;}
</style>
<g id="Full_Color">
	<g>
		<g>
			<path class="st1" d="M118.78,95.87l-41.39,23.9L36,95.87V48.07l41.39-23.9l41.39,23.9V95.87z"/>
			<polygon class="st2" points="77.39,37.67 57.49,49.16 67.95,55.2 77.39,49.75 86.83,55.2 97.29,49.16 			"/>
			<polygon class="st3" points="77.39,106.27 97.29,94.78 86.83,88.74 77.39,94.19 67.95,88.74 57.49,94.78 			"/>
			<polygon class="st0" points="77.39,71.98 47.68,54.82 47.68,89.12 58.15,83.08 58.15,72.19 77.39,83.31 96.63,72.19 96.63,83.08 
				107.1,89.12 107.1,54.82 			"/>
		</g>
		<path class="st1" d="M167.29,77.45L152.36,48H140.3v47.94h9.72V63.55l13.7,27.53h6.98l13.63-27.53v32.39h9.72V48h-11.98
			L167.29,77.45z M221.97,48h-10.82v47.94h31.36v-9.45h-20.54V48z M254.4,95.94h10.82V48H254.4V95.94z M313.8,80.12
			c2.92-1.37,5.14-3.37,6.68-5.99c1.53-2.62,2.29-5.78,2.29-9.48c0-5.29-1.71-9.39-5.13-12.29c-3.43-2.9-8.26-4.35-14.52-4.35
			h-20.82v47.94h10.82v-13.7h11.02l7.6,13.7H324L313.8,80.12z M310.06,71.12c-1.62,1.39-3.94,2.08-6.95,2.08h-10V56.97h10
			c3.01,0,5.33,0.67,6.95,2.02c1.62,1.34,2.43,3.34,2.43,5.99C312.49,67.68,311.68,69.72,310.06,71.12z"/>
	</g>
</g>
</svg>
