<?xml version="1.0" encoding="utf-8"?>
<!-- Generator: Adobe Illustrator 23.0.6, SVG Export Plug-In . SVG Version: 6.00 Build 0)  -->
<svg version="1.1" id="MLIR" xmlns="http://www.w3.org/2000/svg" xmlns:xlink="http://www.w3.org/1999/xlink" x="0px" y="0px"
	 viewBox="0 0 360 143.94" style="enable-background:new 0 0 360 143.94;" xml:space="preserve">
<style type="text/css">
	.st0{fill:#FFFFFF;}
	.st1{fill:#1B466C;}
	.st2{fill:#3775E0;}
	.st3{fill:#5EA8DB;}
</style>
<g id="White">
	<rect width="360" height="143.94"/>
	<path class="st0" d="M36,48.07v47.79l41.39,23.9l41.39-23.9V48.07l-41.39-23.9L36,48.07z M77.39,106.27l-19.9-11.49l10.46-6.04
		l9.44,5.45l9.44-5.45l10.46,6.04L77.39,106.27z M107.1,89.12l-10.46-6.04V72.19L77.39,83.31L58.15,72.19v10.89l-10.46,6.04v-34.3
		l29.71,17.16l29.71-17.16V89.12z M97.29,49.16L86.83,55.2l-9.44-5.45l-9.44,5.45l-10.46-6.04l19.9-11.49L97.29,49.16z M254.4,95.94
		h10.82V48H254.4V95.94z M313.8,80.12c2.92-1.37,5.14-3.37,6.68-5.99c1.53-2.62,2.29-5.78,2.29-9.48c0-5.29-1.71-9.39-5.13-12.29
		c-3.43-2.9-8.26-4.35-14.52-4.35h-20.82v47.94h10.82v-13.7h11.02l7.6,13.7H324L313.8,80.12z M310.06,71.12
		c-1.62,1.39-3.94,2.08-6.95,2.08h-10V56.97h10c3.01,0,5.33,0.67,6.95,2.02c1.62,1.34,2.43,3.34,2.43,5.99
		C312.49,67.68,311.68,69.72,310.06,71.12z M167.29,77.45L152.36,48H140.3v47.94h9.72V63.55l13.7,27.53h6.98l13.63-27.53v32.39h9.72
		V48h-11.98L167.29,77.45z M221.97,48h-10.82v47.94h31.36v-9.45h-20.54V48z"/>
</g>
</svg>
