<?xml version="1.0" standalone="no"?>
<!DOCTYPE svg PUBLIC "-//W3C//DTD SVG 20010904//EN"
 "http://www.w3.org/TR/2001/REC-SVG-20010904/DTD/svg10.dtd">
<svg version="1.0" xmlns="http://www.w3.org/2000/svg"
 width="700.000000pt" height="700.000000pt" viewBox="0 0 700.000000 700.000000"
 preserveAspectRatio="xMidYMid meet">
<metadata>
Created by potrace 1.14, written by Peter Selinger 2001-2017
</metadata>
<g transform="translate(0.000000,700.000000) scale(0.100000,-0.100000)"
fill="#000000" stroke="none">
<path d="M2098 5922 l-1397 -807 0 -1615 0 -1615 1399 -807 1400 -808 1400
808 1399 807 0 1615 0 1615 -1395 805 c-767 443 -1398 806 -1402 807 -4 1
-636 -361 -1404 -805z m1449 -131 c27 -15 316 -183 643 -371 327 -188 608
-350 623 -360 l29 -17 -340 -196 c-186 -108 -345 -199 -353 -202 -9 -3 -150
72 -327 175 -171 99 -316 180 -321 180 -5 0 -150 -81 -322 -180 -172 -99 -315
-180 -317 -180 -3 0 -162 91 -355 202 l-349 201 58 34 c33 18 334 192 669 387
336 195 611 354 612 355 2 1 24 -12 50 -28z m-1050 -1708 c544 -315 996 -573
1003 -573 7 0 459 258 1003 573 545 314 994 574 999 575 4 2 8 -519 8 -1158 0
-639 -4 -1160 -8 -1158 -4 2 -164 93 -355 203 l-346 200 -3 366 -3 367 -647
-374 -648 -374 -647 374 -648 374 -3 -366 -3 -367 -346 -200 c-191 -110 -351
-201 -355 -203 -4 -2 -8 519 -8 1158 0 639 4 1160 8 1158 5 -1 454 -261 999
-575z m690 -1904 l313 -181 314 181 c173 100 320 181 328 180 18 0 692 -392
693 -402 0 -5 -300 -182 -667 -393 l-667 -386 -671 388 c-388 223 -667 391
-662 396 17 17 677 397 691 397 8 1 155 -80 328 -180z"/>
</g>
</svg>
